# xmcd
#
# Track frame offsets:
#   150
#   16138
#   33034
#   48138
#   60824
#   70512
#   87114
#   99066
#   108585
#   127761
#   145043
#   165248
#
# Disc length: 2466 seconds
#
# Revision: 0
# Processed by: cddbd v1.5.1PL0 Copyright (c) Steve Scherf et al.
# Submitted via: Media_Universe 3.0
#
DISCID=7409a00c
DTITLE=Clint Black - Christmas With You
DYEAR=1900
DGENRE=Country
TTITLE0=The Finest Gift
TTITLE1=Under The Mistletoe
TTITLE2=The Kid
TTITLE3=The Coolest Pair
TTITLE4=Looking For Christmas
TTITLE5=Christmas For Every Boy And Girl
TTITLE6=Milk And Cookies (til santa's gone)
TTITLE7=Slow As Christmas
TTITLE8=The Birth Of The King
TTITLE9=Looking For Christmas
TTITLE10=Christmas With You
TTITLE11=Santa's Holiday Song
EXTD=
EXTT0=
EXTT1=
EXTT2=
EXTT3=
EXTT4=
EXTT5=
EXTT6=
EXTT7=
EXTT8=
EXTT9=
EXTT10=
EXTT11=
PLAYORDER=
